# xmcd
#
# Track frame offsets:
#	150
#	13557
#	25608
#	39822
#	57825
#	73198
#	91475
#	115102
#	144668
#	161998
#	205173
#	230864
#	247066
#	259759
#	271378
#	290887
#	302242
#
# Disc length: 4365 seconds
#
# Revision: 0
# Processed by: cddbd v1.5.2PL0 Copyright (c) Steve Scherf et al.
# Submitted via: EZCDAudioConverter 2.1.7.1
#
DISCID=fe110b11
DTITLE=Eddie Palmieri - El Virtuoso 1/2
DYEAR=1900
DGENRE=
TTITLE0=Tema La Perfecta
TTITLE1=El Molestoso
TTITLE2=Lázaro Y Su Micrófono
TTITLE3=Lo Que Traigo Es Sabroso
TTITLE4=Bomba Del Corazón
TTITLE5=Muñeca
TTITLE6=Si Echo Palante
TTITLE7=Café
TTITLE8=Sólo Pensar En Ti
TTITLE9=Azúcar
TTITLE10=Cuidate Compay
TTITLE11=Oyelo Que Te Conviene
TTITLE12=Mi Mambo Conga
TTITLE13=Camagueyanos Y Habaneros
TTITLE14=Tirandote Flores
TTITLE15=We've Loved Before
TTITLE16=Resemblance
EXTD=
EXTT0=
EXTT1=
EXTT2=
EXTT3=
EXTT4=
EXTT5=
EXTT6=
EXTT7=
EXTT8=
EXTT9=
EXTT10=
EXTT11=
EXTT12=
EXTT13=
EXTT14=
EXTT15=
EXTT16=
PLAYORDER=
